<svg id="pathog" width="438" height="116" viewBox="0 0 438 116" fill="none" xmlns="http://www.w3.org/2000/svg">
<path d="M292.1 78.5H430.4C429.5 70.1 424.1 62.2 415.1 55.2H292.1V78.5Z" fill="#ACB3BA"/>
<path d="M301.1 55.2H409.1C408.4 48.1 404.2 41.4 397.2 35.5H301.1V55.2Z" fill="#CED5E0"/>
<path d="M308.5 35.5H390.3C389.8 29.6 386.6 24.1 381.3 19.3H308.5V35.5Z" fill="#E6E9EE"/>
<path d="M282 76.5L272.8 92.1C272.8 92.1 135.9 90.1 82.9001 90.1C45.7001 90.1 43.7001 72 43.6001 69.5H0.100098C3.0001 78.2 17.4001 96.3 17.4001 96.3C1.9001 108.3 7.0001 115.8 7.0001 115.8H408.6C433.9 114.9 437.5 85.8 437.9 76.5H282Z" fill="#324A5E"/>
<path d="M307.6 60.5H300.2V66.6H307.6V60.5Z" fill="#54C0EB"/>
<path d="M324.1 60.5H316.7V66.6H324.1V60.5Z" fill="#54C0EB"/>
<path d="M340.6 60.5H333.2V66.6H340.6V60.5Z" fill="#54C0EB"/>
<path d="M357.2 60.5H349.8V66.6H357.2V60.5Z" fill="#54C0EB"/>
<path d="M373.7 60.5H366.3V66.6H373.7V60.5Z" fill="#54C0EB"/>
<path d="M390.3 60.5H382.9V66.6H390.3V60.5Z" fill="#54C0EB"/>
<path d="M406.8 60.5H399.4V66.6H406.8V60.5Z" fill="#54C0EB"/>
<path d="M311.2 39.3H305V44.4H311.2V39.3Z" fill="#54C0EB"/>
<path d="M325.2 39.3H319V44.4H325.2V39.3Z" fill="#54C0EB"/>
<path d="M339.2 39.3H333V44.4H339.2V39.3Z" fill="#54C0EB"/>
<path d="M353.1 39.3H346.9V44.4H353.1V39.3Z" fill="#54C0EB"/>
<path d="M367.1 39.3H360.9V44.4H367.1V39.3Z" fill="#54C0EB"/>
<path d="M381.1 39.3H374.9V44.4H381.1V39.3Z" fill="#54C0EB"/>
<path d="M395.1 39.3H388.9V44.4H395.1V39.3Z" fill="#54C0EB"/>
<path d="M316.7 22.3H312.1V26.1H316.7V22.3Z" fill="#54C0EB"/>
<path d="M326.9 22.3H322.3V26.1H326.9V22.3Z" fill="#54C0EB"/>
<path d="M337.1 22.3H332.5V26.1H337.1V22.3Z" fill="#54C0EB"/>
<path d="M347.4 22.3H342.8V26.1H347.4V22.3Z" fill="#54C0EB"/>
<path d="M357.6 22.3H353V26.1H357.6V22.3Z" fill="#54C0EB"/>
<path d="M367.8 22.3H363.2V26.1H367.8V22.3Z" fill="#54C0EB"/>
<path d="M378 22.3H373.4V26.1H378V22.3Z" fill="#54C0EB"/>
<path d="M340.6 0.200012H322.3V19.3H340.6V0.200012Z" fill="#324A5E"/>
<path d="M340.6 0.200012H322.3V5.30002H340.6V0.200012Z" fill="#ACB3BA"/>
<path d="M361.4 3.20001H346V19.3H361.4V3.20001Z" fill="#324A5E"/>
<path d="M361.4 3.20001H346V7.50002H361.4V3.20001Z" fill="#ACB3BA"/>
<path d="M43.2001 67.5H0.300098C0.200098 67.5 0.100098 67.4 0.100098 67.3V66C0.100098 65.9 0.200098 65.8 0.300098 65.8H43.1001C43.2001 65.8 43.3001 65.9 43.3001 66V67.3C43.4001 67.4 43.3001 67.5 43.2001 67.5Z" fill="#324A5E"/>
<path d="M42.4 66.8H41.8V70H42.4V66.8Z" fill="#2B3B4E"/>
<path d="M39.6 66.8H39V70H39.6V66.8Z" fill="#2B3B4E"/>
<path d="M36.9 66.8H36.3V70H36.9V66.8Z" fill="#2B3B4E"/>
<path d="M34.2001 66.8H33.6001V70H34.2001V66.8Z" fill="#2B3B4E"/>
<path d="M31.5001 66.8H30.9001V70H31.5001V66.8Z" fill="#2B3B4E"/>
<path d="M28.8002 66.8H28.2002V70H28.8002V66.8Z" fill="#2B3B4E"/>
<path d="M26.1 66.8H25.5V70H26.1V66.8Z" fill="#2B3B4E"/>
<path d="M23.4001 66.8H22.8V70H23.4001V66.8Z" fill="#2B3B4E"/>
<path d="M20.7001 66.8H20.1001V70H20.7001V66.8Z" fill="#2B3B4E"/>
<path d="M18.0001 66.8H17.4001V70H18.0001V66.8Z" fill="#2B3B4E"/>
<path d="M15.3002 66.8H14.7002V70H15.3002V66.8Z" fill="#2B3B4E"/>
<path d="M12.5001 66.8H11.9001V70H12.5001V66.8Z" fill="#2B3B4E"/>
<path d="M9.80019 66.8H9.2002V70H9.80019V66.8Z" fill="#2B3B4E"/>
<path d="M7.1 66.8H6.5V70H7.1V66.8Z" fill="#2B3B4E"/>
<path d="M4.40005 66.8H3.80005V70H4.40005V66.8Z" fill="#2B3B4E"/>
<path d="M1.7001 66.8H1.1001V70H1.7001V66.8Z" fill="#2B3B4E"/>
</svg>
